Patient4_TMGait_0pt7_01_left_23_EMG.mot
version=1
nRows=13
nColumns=33
inDegrees=no
endheader
time	1LAddLong	2LGlutMax	3LGlutMed	4LIliopsoas	5LSemiMemb	6LBicFemLong	7LRecFem	8LVastMed	9LVastLat	10LGasMed	11LTibAnt	12lTibPost	13LPeroneusLong	14LSol	15LExtDigLong	16LFlexDigLong	17RAddLong	18RGlutMax	19RGlutMed	20RIliopsoas	21RSemiMemb	22RBicFemLong	23RRecFem	24RVastMed	25RVastLat	26RGasMed	27RTibAnt	28RTibPost	29RPeroneusLong	30RSol	31RExtDigLong	32RFlexDigLong
27.27	0.013123	-0.16907	-0.41733	0.044708	0.024261	0.11078	-0.20554	-0.003204	0.008087	-0.27344	0.067596	0.013733	0.044556	0.070038	0.073395	0.049438	-0.09903	-0.28732	0.50644	0.063477	-1.58	0.16998	0.2359	-0.10681	-0.14969	-0.001373	0.058899	-0.018921	-0.57144	-0.04715	-0.00412	-0.003815
27.271	0.011902	-0.085907	-0.42007	0.01297	-0.01236	0.046387	-0.20065	-0.006561	0.014801	-0.35584	0.062408	-0.003967	0.04715	0.011597	0.053406	-0.20248	-0.18372	-0.22034	0.44998	0.1503	-0.66132	0.03006	-0.06897	0.27008	0.28961	-0.015869	0.053101	-0.023041	-0.89172	-0.09964	-0.004425	-0.006866
27.272	0.015869	-0.063934	-0.39368	-0.00061	-0.006409	0.014038	-0.20187	-0.007324	0.007782	-0.31769	0.087433	-0.000305	0.060883	-0.048828	0.099792	-0.088348	-0.19974	-0.075836	0.42175	0.25925	0.33508	0.05249	-0.13138	0.26123	0.82047	-0.023346	0.064545	-0.011902	-0.66483	-0.050964	-0.003662	-0.001984
27.273	0.008392	-0.091705	-0.43457	-0.003204	-0.010681	-0.032806	-0.18616	-0.005493	0.018311	-0.1947	-0.10269	0.00061	0.02121	-0.049438	0.2417	0.51239	-0.084534	-0.16388	0.5275	0.2005	0.78659	0.13321	-0.027008	0.18341	1.1235	-0.007172	0.067291	-0.007324	-0.49301	-0.018158	-0.012817	-0.005188
27.274	0.011139	-0.090179	-0.49027	0.008087	0.001373	0.006561	-0.21774	-0.003052	0.026398	-0.10391	-0.21378	0.013275	0.034943	-0.044556	0.21774	-0.005188	0.031281	-0.21591	0.58563	0.081024	0.45853	-0.091858	0.089111	0.3035	0.75302	-0.01297	-0.003052	-0.003204	0.13077	-0.034027	-0.00061	0.001984
27.275	0.006409	-0.07843	-0.4982	0.011292	0.018311	0.021057	-0.22415	-0.00351	0.024109	-0.021057	-0.093079	0.026398	0.035553	0.011597	-0.10422	-0.015717	0.1004	-0.15854	0.62271	0.062561	0.13199	-0.52063	0.29114	0.13489	0.25833	-0.00946	-0.12528	-0.002747	0.88455	-0.11581	-0.000916	-0.00824
27.276	0.010071	-0.033722	-0.41992	0.011139	0.040894	0.020752	-0.22781	-0.006714	0.036316	0.038757	-0.033569	0.020905	-0.001984	0.020447	-0.19257	-0.022583	0.050659	-0.087585	0.74112	0.041656	0.05249	-0.6311	0.17502	0.090942	0.38834	-0.009766	-0.15915	-0.003662	0.76904	-0.088806	-0.002136	-0.004578
27.277	0.007172	0.014191	-0.36545	-0.006104	0.017242	0.015411	-0.28076	0.003357	0.052948	0.27206	-0.086975	0.016632	-0.020294	0.000305	-0.21179	-0.030212	0.018463	0.047913	0.75913	-0.0177	0.13153	-0.56702	0.089417	0.17029	0.18021	-0.006714	-0.05661	-0.009308	0.42358	0.008087	-0.003662	-0.007324
27.278	0.023956	-0.020599	-0.45212	0.011749	-0.026703	-0.036926	-0.28717	-0.00473	0.067749	0.75485	-0.096893	0.009766	-0.067291	0.03891	-0.20599	-0.006866	-0.006714	0.028534	0.72052	-0.035706	0.14526	-0.26977	-0.050812	0.27634	-0.12268	-0.015106	0.13458	-0.00351	0.16785	-0.003967	-0.003204	-0.01236
27.279	0.025635	0.015259	-0.43854	-0.029144	-0.05127	-0.1384	-0.27191	-0.002594	0.038452	1.2547	0.040894	0.022736	0.024109	0.11719	-0.10315	-0.010529	-0.061188	0.045471	0.75851	-0.11978	0.30212	-0.19455	0.1796	0.49805	-0.55023	-0.008392	0.13412	-0.00351	-0.031433	-0.010986	-0.001221	-0.010223
27.28	0.024872	-0.028534	-0.41946	0.014648	-0.014038	-0.14648	-0.25574	-0.004272	0.032959	1.2604	0.079193	0.013123	0.039063	0.20691	0.10773	-0.60394	-0.021362	0.041046	0.75943	-0.12878	0.44754	-0.32105	0.53833	0.62454	-0.85571	-0.005341	0.041199	-0.006866	-0.049438	0.032654	-0.006714	-0.001831
27.281	0.027161	0.011292	-0.36514	-0.001373	0.048218	-0.085297	-0.26642	-0.006561	0.023499	0.67993	-0.03418	0.004883	0.046539	0.24521	0.093994	-0.067749	0.04425	0.06134	0.81741	-0.14008	0.34393	-0.31555	0.77606	0.50552	-0.4773	-0.014191	0.05249	-0.007477	-0.031281	-0.027466	-0.006714	0.003052
27.282	0.034637	0.018311	-0.2388	0.006714	0.06012	-0.06485	-0.28336	-0.009918	0.027618	0.23209	-0.018158	0.010376	0.003967	0.15717	0.006866	0.42191	0.014038	0.18188	0.84564	-0.097504	0.26138	-0.25299	0.70984	0.55832	0.26474	-0.016327	0.017853	-0.007629	0.037079	-0.013428	-0.003662	0.011444
